<?xml version="1.0" encoding="UTF-8" standalone="no"?>
<svg
   version="1.0"
   width="512.000000pt"
   height="512.000000pt"
   viewBox="0 0 512.000000 512.000000"
   preserveAspectRatio="xMidYMid meet"
   id="svg8"
   sodipodi:docname="logmask_light.svg"
   inkscape:version="1.3.2 (091e20e, 2023-11-25)"
   xmlns:inkscape="http://www.inkscape.org/namespaces/inkscape"
   xmlns:sodipodi="http://sodipodi.sourceforge.net/DTD/sodipodi-0.dtd"
   xmlns="http://www.w3.org/2000/svg"
   xmlns:svg="http://www.w3.org/2000/svg">
  <defs
     id="defs8" />
  <sodipodi:namedview
     id="namedview8"
     pagecolor="#ffffff"
     bordercolor="#000000"
     borderopacity="0.25"
     inkscape:showpageshadow="2"
     inkscape:pageopacity="0.0"
     inkscape:pagecheckerboard="0"
     inkscape:deskcolor="#d1d1d1"
     inkscape:document-units="pt"
     inkscape:zoom="0.69140625"
     inkscape:cx="275.52542"
     inkscape:cy="167.77401"
     inkscape:window-width="1696"
     inkscape:window-height="1027"
     inkscape:window-x="234"
     inkscape:window-y="25"
     inkscape:window-maximized="0"
     inkscape:current-layer="svg8"
     showguides="true">
    <sodipodi:guide
       position="746.30506,841.76269"
       orientation="0,-1"
       id="guide9"
       inkscape:locked="false" />
    <sodipodi:guide
       position="776.67794,1045.6949"
       orientation="0,-1"
       id="guide10"
       inkscape:locked="false" />
  </sodipodi:namedview>
  <path
     d="m 438.5161,152.84755 c -40.23891,0.81291 -44.70989,1.62581 -61.64545,11.24521 -17.20654,9.6194 -33.46469,31.43241 -38.6131,51.75509 -2.98065,11.65166 -2.84517,66.79386 0.13549,78.31005 5.82584,22.62591 22.35494,43.21956 42.94859,53.65186 15.17427,7.58714 20.59365,8.26456 63.54225,8.26456 44.30343,0 46.60667,-0.40645 52.70346,-10.4323 3.25164,-5.14842 3.25164,-5.28391 3.25164,-50.53572 0,-43.35505 -0.13549,-45.65829 -2.84518,-50.12928 -1.49033,-2.57421 -4.74195,-6.09681 -7.31616,-7.72262 -4.20003,-2.98066 -5.82584,-3.11614 -28.0453,-3.11614 -14.76781,0 -24.65818,0.54194 -26.55496,1.49033 -12.87103,6.63874 -16.6646,22.21945 -8.12908,32.51628 4.87745,5.82584 10.16134,8.12907 20.86462,8.94198 l 9.34843,0.81291 v 17.34201 17.47751 h -24.65817 c -23.16786,0 -25.20013,-0.27097 -31.5679,-3.25163 -7.0452,-3.25163 -15.03879,-10.97424 -19.2388,-18.69686 -2.03227,-3.79357 -2.43872,-8.67102 -2.84518,-34.00662 -0.40645,-28.72272 -0.40645,-29.53562 2.84518,-36.58082 4.3355,-9.6194 8.94198,-14.63233 17.4775,-19.23879 l 7.18068,-4.06454 38.74857,-0.67743 c 35.36146,-0.81291 39.01954,-1.08387 43.35505,-3.52259 14.22587,-8.26456 14.49684,-29.26467 0.54194,-37.25824 -5.82583,-3.25164 -10.5678,-3.5226 -51.48412,-2.57421 z"
     id="path6"
     style="fill:#b3b3b3;stroke:none;stroke-width:0.135484" />
  <path
     d="m 24.982176,155.15078 c -2.438722,1.21936 -6.096803,4.60647 -8.12907,7.72262 l -3.522599,5.41938 v 86.03267 c 0,84.54234 0,86.30363 2.845175,90.91011 1.49033,2.5742 4.741959,6.09681 7.316164,7.72262 4.47099,3.11614 5.012928,3.11614 50.806693,3.11614 45.793771,0 46.335701,0 50.806691,-3.11614 16.25814,-10.83877 11.65167,-34.54855 -7.58713,-38.88406 -2.84518,-0.67742 -17.88396,-1.35484 -33.32919,-1.35484 H 56.008132 v -72.89067 -72.75518 l -3.251628,-4.87745 c -5.961319,-8.80649 -18.019442,-11.78716 -27.774328,-7.0452 z"
     id="path7"
     style="fill:#b3b3b3;stroke:none;stroke-width:0.135484" />
  <path
     d="m 208.98774,155.0153 c -29.8066,7.18068 -53.92284,31.83886 -60.96804,62.18739 -1.89678,7.72262 -2.16775,15.44524 -1.76129,42.00021 0.54194,31.02595 0.67742,32.92273 4.06453,41.59374 5.14841,13.54845 11.51619,23.43882 21.40655,32.65177 10.02586,9.48391 23.84528,17.34202 36.03888,20.45816 10.5678,2.70969 31.29693,2.84518 41.1873,0.13548 30.21304,-7.99359 53.92284,-33.32918 60.42609,-64.35514 3.25163,-15.7162 2.03227,-66.38741 -1.89678,-78.58102 -7.18068,-21.81301 -22.7614,-39.83245 -42.94859,-49.45185 -6.63874,-3.25163 -15.44524,-6.50326 -19.37429,-7.31617 -9.75489,-2.03227 -26.284,-1.62581 -36.17436,0.67743 z m 33.73564,44.03247 c 8.67101,3.11614 19.78074,14.22587 22.7614,22.49043 1.21936,3.65808 1.7613,13.41296 1.7613,33.60016 0,32.24532 -0.94839,36.17437 -11.10974,46.3357 -8.40003,8.40005 -14.09038,10.56779 -28.18078,10.56779 -10.83876,0 -12.87102,-0.40645 -18.56137,-3.65808 -7.99358,-4.87744 -15.30976,-13.27747 -17.88396,-21.13558 -2.5742,-7.18069 -3.11615,-54.46477 -0.81291,-62.59385 6.09681,-21.94849 30.21305,-33.87113 52.02606,-25.60657 z"
     id="path8"
     style="fill:#b3b3b3;stroke:none;stroke-width:0.135484" />
</svg>
